<svg width="12" height="12" viewBox="0 0 12 12" fill="none" xmlns="http://www.w3.org/2000/svg">
<path d="M3.29297 11.707C3.4805 11.8945 3.73481 11.9998 3.99997 11.9998C4.26513 11.9998 4.51944 11.8945 4.70697 11.707L9.70697 6.707C9.89444 6.51947 9.99976 6.26516 9.99976 6C9.99976 5.73484 9.89444 5.48053 9.70697 5.293L4.70697 0.293C4.51837 0.110842 4.26577 0.0100479 4.00357 0.0123262C3.74137 0.0146046 3.49056 0.119774 3.30515 0.305182C3.11974 0.490589 3.01457 0.741403 3.0123 1.0036C3.01002 1.2658 3.11081 1.5184 3.29297 1.707L7.58597 6L3.29297 10.293C3.1055 10.4805 3.00018 10.7348 3.00018 11C3.00018 11.2652 3.1055 11.5195 3.29297 11.707Z" fill="white"/>
</svg>
