<svg width="120" height="32" viewBox="0 0 120 32" fill="none" xmlns="http://www.w3.org/2000/svg">
<path d="M12.2243 31.7775C10.9067 31.7775 9.96494 30.9902 9.84643 30.8854C8.40007 29.3925 6.96519 27.9085 5.52903 26.4246C4.08522 24.9317 2.64142 23.4401 1.19761 21.9485C0.384597 21.2838 0.113164 20.4952 0.0328822 19.9545C-0.220708 18.2469 1.07527 17.0863 1.08929 17.0748C9.86936 8.05994 15.6484 2.1945 16.622 1.25888C16.8195 1.07099 17.1521 0.810261 17.6198 0.632597C18.6596 0.22742 19.8346 0.437001 20.6106 1.16939C21.1739 1.70494 21.4873 2.49483 21.4708 3.33714C21.4529 4.23185 21.0617 5.0793 20.3965 5.66342C18.861 7.21638 17.3216 8.77828 15.7758 10.3479L15.7491 10.3747C15.6561 10.4552 15.1922 10.8924 15.154 11.6031C15.1285 12.0427 15.2699 12.4837 15.5528 12.8454L17.5459 14.8918C18.8992 16.2824 20.2551 17.6743 21.6071 19.0701L21.6122 19.0764C21.9168 19.4177 22.4278 20.1475 22.4418 21.202C22.4482 22.4047 21.7996 23.2011 21.5192 23.4874L14.9552 30.4137C14.4238 31.0797 13.7242 31.5283 12.9417 31.6983C12.6933 31.7532 12.4537 31.7762 12.2256 31.7762L12.2243 31.7775ZM18.7017 0.825569C18.3869 0.825569 18.0683 0.883104 17.7612 1.00325C17.4439 1.12468 17.1368 1.3164 16.8947 1.54647C15.9237 2.47953 10.1484 8.34114 1.35945 17.365C1.33523 17.3867 0.202369 18.4003 0.425375 19.8957C0.495463 20.3674 0.733759 21.0563 1.46649 21.657C2.92686 23.1627 4.37067 24.6556 5.81448 26.1485C7.24936 27.6324 8.68425 29.1151 10.1191 30.5978C10.2313 30.6962 11.3629 31.642 12.8564 31.311C13.5496 31.1602 14.1715 30.7601 14.657 30.153L21.2338 23.2113C21.481 22.9582 22.0519 22.259 22.0455 21.2045C22.034 20.283 21.5867 19.6427 21.3191 19.3423C19.9684 17.9478 18.615 16.5572 17.2617 15.1678L15.2534 13.1049C14.8978 12.6511 14.7271 12.1156 14.7577 11.58C14.8035 10.7313 15.3298 10.2124 15.4891 10.0731C17.04 8.49838 18.5781 6.93518 20.1251 5.37327C20.7164 4.85306 21.0592 4.11173 21.0745 3.32822C21.0885 2.59711 20.8209 1.91455 20.3392 1.45697C19.9008 1.04285 19.3108 0.824321 18.7017 0.824321V0.825569ZM12.181 25.1911C12.1096 25.1911 12.0536 25.172 12.0293 25.163L11.9847 25.1477L11.9491 25.1132L7.89289 20.9515C7.72596 20.6997 7.3462 20.0159 7.43541 19.1135C7.50295 18.422 7.80496 17.9299 7.97954 17.6973C8.35674 17.3241 8.71101 16.9726 9.06654 16.6211C9.42208 16.2696 9.77762 15.9181 10.1344 15.5666L10.3855 15.3915L15.8472 21.0576C15.8663 21.0767 15.9313 21.1535 15.9313 21.2774C15.9313 21.335 15.9173 21.381 15.902 21.4129V21.4449L12.4932 25.0518C12.469 25.0761 12.4014 25.1451 12.2906 25.1745C12.2511 25.1873 12.2141 25.1911 12.1797 25.1911H12.181ZM12.1874 24.7898H12.1937L15.5133 21.2826L10.3409 15.9181C10.0236 16.2338 9.68331 16.57 9.34435 16.9061C8.98881 17.2576 8.63327 17.6091 8.27646 17.9606C8.14648 18.137 7.88779 18.5588 7.82918 19.1544C7.75527 19.911 8.06493 20.49 8.21275 20.7176L12.1874 24.7911V24.7898Z" fill="url(#paint0_linear_1_4593)"/>
<path d="M17.2228 5.2544C16.104 4.09384 16.2047 2.22646 17.3082 1.24867C18.3188 0.359071 19.9333 0.417894 20.9439 1.46854C26.0207 6.61314 31.1053 11.7501 36.1822 16.8946C36.2829 16.9752 37.4947 17.953 37.38 19.4957C37.3087 20.4582 36.7709 21.0908 36.5836 21.2889C33.9521 24.0306 31.313 26.771 28.6815 29.5126L27.448 30.7179C27.2619 30.902 27.0173 31.1001 26.7165 31.2688C26.5152 31.3788 26.3368 31.4452 26.2794 31.4669C26.1291 31.518 26.0004 31.5552 25.892 31.5769C25.6703 30.6732 25.4193 29.1445 25.72 27.2925C25.9417 25.9402 26.3801 24.8819 26.7522 24.1623C27.1039 23.5896 27.541 22.9493 28.0864 22.2884C28.5962 21.6788 29.0906 21.1573 29.557 20.7304C29.6857 20.5617 30.0234 20.0466 30.0374 19.3052C30.0514 18.5997 29.7647 18.0923 29.65 17.9095C28.8612 17.1081 28.0724 16.3143 27.2836 15.5142L24.4151 18.4975L22.2131 16.2415C22.0984 16.1163 21.553 15.4925 21.5963 14.5735C21.618 13.9779 21.8754 13.5599 21.9977 13.3758C22.1557 13.1918 22.3138 13.0077 22.4705 12.8249C22.6209 12.5527 22.8222 12.0901 22.7712 11.5392C22.7062 10.8336 22.2628 10.3492 22.0538 10.1281C20.1181 8.07024 18.6259 6.71026 17.2203 5.25571L17.2228 5.2544Z" fill="url(#paint1_linear_1_4593)"/>
<path d="M52.9553 3.16086C52.5565 1.00844 51.5115 0.132903 49.5567 0.132903H44.5053V14.4177H49.6128C51.7014 14.4177 52.48 13.0654 52.8406 11.4459C53.1439 10.0553 53.107 4.36105 52.9541 3.16086H52.9553ZM50.0116 10.8746C49.7835 11.7885 49.2139 11.9597 47.9804 11.9789H47.2974V2.57033H48.076C49.0636 2.57033 49.9747 2.66621 50.1263 3.67468C50.278 4.56939 50.3162 9.73189 50.0129 10.8746H50.0116ZM57.0332 0.132903H54.1659V14.4177H57.0332V0.132903ZM62.9651 2.18944C63.9336 2.18944 64.6931 2.70327 64.6931 4.0185V5.06661H67.2188V3.88556C67.2188 1.35225 65.6807 -3.05176e-05 63.0034 -3.05176e-05C60.117 -3.05176e-05 58.598 1.29473 58.598 3.88556V10.7429C58.598 13.2571 60.4025 14.5902 62.8135 14.5902C65.7572 14.5902 67.2188 13.3146 67.2188 10.7429V6.83813H62.9091V9.181H64.6944V10.7429C64.6944 12.1144 63.8584 12.4378 62.9282 12.4378C62.1687 12.4378 61.1237 12.1144 61.1237 10.8183L61.0855 3.88556C61.0855 2.5141 62.0349 2.19075 62.9651 2.19075V2.18944ZM71.7388 0.132903H68.8716V14.4177H71.7388V0.132903ZM80.7585 0.132903H72.8398V2.39908H75.4981V14.4177H78.1002V2.39908H80.7585V0.132903ZM87.1849 14.4177H89.7297L85.8557 0.132903H83.4447L79.6269 14.4177H82.1717L82.8547 11.6172H86.4623L87.1849 14.4177ZM83.4065 9.29478L84.6413 4.41861L85.8761 9.29478H83.4078H83.4065ZM93.4214 11.9227V0.132903H90.4013V14.4177H97.4087V11.9227H93.4214ZM47.277 25.9237H51.5115V23.5808H47.277V19.8856H52.3666V17.5427H44.5053V31.8275H47.2782V25.9237H47.277ZM57.497 17.4098C54.5916 17.4098 53.0726 18.6854 53.0726 21.2954V28.1528C53.0726 30.6669 54.8961 32 57.2498 32C60.2126 32 61.6934 30.7244 61.6934 28.1528V21.2954C61.6934 18.7621 60.1744 17.4098 57.497 17.4098ZM59.1677 28.1514C59.1677 29.5229 58.3317 29.8655 57.4205 29.8655C56.6419 29.8655 55.597 29.5229 55.597 28.2268V21.2941C55.597 19.9227 56.489 19.5801 57.4205 19.5801C58.4273 19.5801 59.1677 20.1131 59.1677 21.4092V28.1514ZM70.086 31.8275H73.0106L69.9535 26.0565C71.1883 25.3893 72.0421 24.0754 72.0421 22.0188C72.0421 19.8089 71.0545 17.5427 67.5603 17.5427H63.364V31.8275H65.9649V26.6471H67.3513L70.086 31.8275ZM65.9649 19.9048H67.1232C68.6422 19.9048 69.5164 20.4569 69.5164 21.8859C69.5164 23.4862 68.6626 24.0191 67.2188 24.0191H65.9649V19.9048ZM80.6285 17.5427H72.7099V19.8089H75.3681V31.8275H77.9702V19.8089H80.6285V17.5427ZM88.6682 31.8275H91.5927L88.5356 26.0565C89.7705 25.3893 90.6243 24.0754 90.6243 22.0188C90.6243 19.8089 89.6367 17.5427 86.1425 17.5427H81.9461V31.8275H84.5483V26.6471H85.9348L88.6694 31.8275H88.6682ZM84.547 19.9048H85.7054C87.2244 19.9048 88.0985 20.4569 88.0985 21.8859C88.0985 23.4862 87.2435 24.0191 85.801 24.0191H84.547V19.9048ZM100.488 19.8664V17.5427H92.6632V31.8275H100.677V29.5038H95.3979V25.3702H99.6515V23.0082H95.3979V19.8651H100.486L100.488 19.8664ZM109.78 22.5135V21.275C109.78 18.7417 108.204 17.4085 105.601 17.4085C102.999 17.4085 101.177 18.9321 101.177 21.275C101.177 23.6178 102.203 24.5892 104.481 25.5606C105.944 26.1703 107.083 26.7992 107.083 28.1514C107.083 29.275 106.476 29.8271 105.584 29.8271C104.178 29.8271 103.856 29.0462 103.856 27.1609H101.121C101.121 30.6464 102.108 31.9987 105.603 31.9987C108.47 31.9987 109.856 30.6848 109.856 28.1514C109.856 25.1797 107.54 24.1892 106.021 23.5232C104.577 22.9136 103.932 22.5902 103.932 21.4092C103.932 20.0569 104.634 19.5801 105.603 19.5801C106.456 19.5801 107.122 20.1706 107.122 21.1804V22.5135H109.781H109.78ZM119.923 22.5135V21.275C119.923 18.7417 118.347 17.4085 115.745 17.4085C113.143 17.4085 111.32 18.9321 111.32 21.275C111.32 23.6178 112.346 24.5892 114.625 25.5606C116.088 26.1703 117.227 26.7992 117.227 28.1514C117.227 29.275 116.619 29.8271 115.727 29.8271C114.322 29.8271 113.999 29.0462 113.999 27.1609H111.264C111.264 30.6464 112.252 31.9987 115.746 31.9987C118.613 31.9987 120 30.6848 120 28.1514C120 25.1797 117.683 24.1892 116.164 23.5232C114.72 22.9136 114.076 22.5902 114.076 21.4092C114.076 20.0569 114.778 19.5801 115.746 19.5801C116.6 19.5801 117.265 20.1706 117.265 21.1804V22.5135H119.925H119.923Z" fill="url(#paint2_linear_1_4593)"/>
<defs>
<linearGradient id="paint0_linear_1_4593" x1="-0.456457" y1="16.0664" x2="22.7387" y2="16.1248" gradientUnits="userSpaceOnUse">
<stop stop-color="#4006AA"/>
<stop offset="0.25" stop-color="#9501B9"/>
<stop offset="0.48" stop-color="#DE25C2"/>
<stop offset="0.67" stop-color="#F44474"/>
<stop offset="0.95" stop-color="#FF9263"/>
</linearGradient>
<linearGradient id="paint1_linear_1_4593" x1="15.8083" y1="16.0907" x2="37.8592" y2="16.144" gradientUnits="userSpaceOnUse">
<stop stop-color="#4006AA"/>
<stop offset="0.25" stop-color="#9501B9"/>
<stop offset="0.48" stop-color="#DE25C2"/>
<stop offset="0.67" stop-color="#F44474"/>
<stop offset="0.95" stop-color="#FF9263"/>
</linearGradient>
<linearGradient id="paint2_linear_1_4593" x1="42.0956" y1="15.8172" x2="125.344" y2="16.4347" gradientUnits="userSpaceOnUse">
<stop stop-color="#4006AA"/>
<stop offset="0.25" stop-color="#9501B9"/>
<stop offset="0.48" stop-color="#DE25C2"/>
<stop offset="0.67" stop-color="#F44474"/>
<stop offset="0.95" stop-color="#FF9263"/>
</linearGradient>
</defs>
</svg>
