<svg width="7" height="12" viewBox="0 0 7 12" fill="none" xmlns="http://www.w3.org/2000/svg">
<path d="M6.707 11.707C6.51947 11.8945 6.26516 11.9998 6 11.9998C5.73484 11.9998 5.48053 11.8945 5.293 11.707L0.293 6.707C0.105529 6.51947 0.000213623 6.26516 0.000213623 6C0.000213623 5.73484 0.105529 5.48053 0.293 5.293L5.293 0.293C5.4816 0.110842 5.7342 0.0100479 5.9964 0.0123262C6.2586 0.0146046 6.50941 0.119774 6.69482 0.305182C6.88023 0.490589 6.9854 0.741403 6.98767 1.0036C6.98995 1.2658 6.88916 1.5184 6.707 1.707L2.414 6L6.707 10.293C6.89447 10.4805 6.99979 10.7348 6.99979 11C6.99979 11.2652 6.89447 11.5195 6.707 11.707Z" fill="white"/>
</svg>
